<svg width="420" height="134" viewBox="0 0 420 134" fill="none" xmlns="http://www.w3.org/2000/svg">
<g clip-path="url(#clip0_1_25)">
<path d="M132.823 41.375C132.823 31.9687 132.823 22.5677 132.823 13.1771H151.016V14.3594C146.615 14.3594 142.208 14.3594 137.807 14.3594V26.6979H145.969V27.8594H137.807C137.807 32.3646 137.807 36.8698 137.807 41.375H132.823Z" fill="white"/>
<path d="M154.875 41.4167H159.865V13.2344H154.875V41.4167Z" fill="white"/>
<path d="M171.943 22.9896C170.25 22.9896 168.703 23.4062 167.312 24.2344C165.917 25.0573 164.807 26.1719 163.979 27.5625C163.151 28.9531 162.74 30.5 162.74 32.1927C162.74 33.8906 163.151 35.4323 163.979 36.8229C164.807 38.2187 165.917 39.3281 167.312 40.1562C168.703 40.9844 170.25 41.3958 171.943 41.3958C173.635 41.3958 175.182 40.9844 176.573 40.1562C177.969 39.3281 179.078 38.2187 179.906 36.8229C180.734 35.4323 181.146 33.8906 181.146 32.1927C181.146 30.5 180.734 28.9531 179.906 27.5625C179.078 26.1719 177.969 25.0573 176.573 24.2344C175.182 23.4062 173.635 22.9896 171.943 22.9896ZM171.943 24.1146C173.099 24.1146 174.089 24.901 174.906 26.4792C175.729 28.0573 176.141 29.9583 176.141 32.1927C176.141 34.4271 175.729 36.3333 174.906 37.9115C174.089 39.4844 173.099 40.276 171.943 40.276C170.786 40.276 169.797 39.4844 168.969 37.9115C168.141 36.3333 167.724 34.4271 167.724 32.1927C167.724 29.9583 168.141 28.0573 168.969 26.4792C169.797 24.901 170.786 24.1146 171.943 24.1146Z" fill="white"/>
<path d="M196.047 41.3958V38.8958C195.099 40.276 193.687 41.0937 191.818 41.349C189.948 41.6042 188.187 41.1979 186.547 40.1354C184.901 39.0729 184.083 37.2083 184.083 34.5365V23.0312H189.068C189.068 24.9479 189.068 26.8646 189.068 28.7865C189.068 30.7031 189.068 32.6198 189.068 34.5365C189.068 36.9948 189.615 38.5156 190.714 39.0937C191.812 39.6719 192.917 39.6615 194.026 39.0625C195.135 38.4635 195.807 37.5677 196.047 36.3698V23.0312H201.031C201.031 29.151 201.031 35.276 201.031 41.3958H196.047Z" fill="white"/>
<path d="M205.365 41.3958H210.354V32.901C210.339 31.6927 210.568 30.2969 211.042 28.7031C211.516 27.1146 212.271 25.9948 213.307 25.3333C214.375 24.8229 215.193 24.7917 215.771 25.2396C216.349 25.6823 216.672 26.276 216.74 27.0104C216.802 27.7448 216.594 28.3073 216.109 28.6875C217.708 29.0937 218.781 28.776 219.318 27.7292C219.859 26.6875 219.818 25.5729 219.193 24.3906C218.568 23.2083 217.318 22.6146 215.437 22.6146C213.203 22.7083 211.51 24.2396 210.354 27.2083V23.0312H205.365V41.3958Z" fill="white"/>
<path d="M256.115 36.8073C257.755 35.4531 259.167 33.8958 260.349 32.1354L258.776 32.1146C258.036 33.2865 256.891 34.4948 255.323 35.7396C253.339 33.1146 251.391 30.4531 249.474 27.7604C248.932 27.0104 248.385 26.2604 247.839 25.5104C248.651 25.0521 249.448 24.5156 250.219 23.8958C251.01 23.2917 251.667 22.5937 252.193 21.8073C252.729 21.0052 253 20.0937 253 19.0677C253 18.0833 252.745 17.1562 252.229 16.2917C250.984 14.3594 249.203 13.375 246.891 13.3333C245.354 13.2396 243.87 13.4844 242.437 14.0625C241.281 14.5365 240.385 15.2969 239.755 16.349C239.115 17.599 238.927 18.9167 239.203 20.3125C239.599 22.0469 240.349 23.6198 241.453 25.0417L242.26 26.1615C240.51 26.8854 239.115 27.9115 238.062 29.2396C237.01 30.5521 236.469 32.1927 236.443 34.1667C236.391 36.3073 237.13 38.1302 238.651 39.6406C240.099 40.8802 241.766 41.5885 243.656 41.7708C245.667 41.9687 247.641 41.7396 249.568 41.0833C250.609 40.7396 251.568 40.2604 252.448 39.6406L254.219 41.849H260.349L256.115 36.8073ZM243.656 16.1302C244 15.5521 244.464 15.151 245.057 14.9323C245.661 14.7187 246.271 14.6146 246.891 14.6146C248.141 14.6146 249.182 15.0156 250.026 15.8177C250.875 16.6198 251.302 17.6562 251.302 18.9323C251.302 20.0469 250.922 21.0052 250.161 21.8073C249.401 22.6094 248.573 23.2656 247.677 23.7812C247.427 23.9375 247.167 24.0885 246.891 24.2344L244.547 21C243.969 20.224 243.583 19.3646 243.401 18.4167C243.229 17.6146 243.318 16.8542 243.656 16.1302ZM251.385 38.3802C249.047 40.026 246.562 40.3281 243.932 39.2865C243.026 38.8698 242.271 38.2188 241.667 37.3385C240.682 35.724 240.339 33.9687 240.641 32.0729C240.958 30.2344 241.823 28.7187 243.245 27.5208L251.385 38.3802Z" fill="white"/>
<path d="M278.62 41.375C278.62 31.9687 278.62 22.5677 278.62 13.1771H296.807V14.3594C292.406 14.3594 288.005 14.3594 283.604 14.3594V26.6979H291.766V27.8594H283.604C283.604 32.3646 283.604 36.8698 283.604 41.375H278.62Z" fill="white"/>
<path d="M299.448 32.4479C299.5 34 299.849 35.4167 300.484 36.6979C301.12 37.9792 302.083 38.8854 303.37 39.4271C304.568 39.849 305.771 39.9896 306.99 39.849C308.203 39.7135 309.214 39.4531 310.01 39.0729C309.172 39.875 308.208 40.5052 307.125 40.9635C306.042 41.4219 304.875 41.651 303.63 41.651C301.932 41.651 300.391 41.2396 298.995 40.4115C297.604 39.5833 296.495 38.474 295.667 37.0833C294.839 35.6875 294.422 34.1458 294.422 32.4479C294.422 30.7552 294.839 29.2135 295.667 27.8177C296.495 26.4271 297.604 25.3177 298.995 24.4896C300.391 23.6615 301.932 23.2448 303.63 23.2448C305.323 23.2448 306.865 23.6615 308.26 24.4896C309.651 25.3177 310.76 26.4271 311.589 27.8177C312.417 29.2135 312.833 30.7552 312.833 32.4479H299.448ZM307.786 31.2656C307.745 30.6615 307.656 29.9792 307.51 29.2187C307.365 28.4583 307.141 27.7135 306.828 26.9896C306.521 26.2708 306.109 25.6667 305.589 25.1875C305.068 24.7083 304.411 24.4687 303.609 24.4687C302.885 24.4687 302.266 24.7031 301.745 25.1771C301.229 25.651 300.802 26.25 300.474 26.9687C300.146 27.6927 299.901 28.4375 299.734 29.2083C299.573 29.9792 299.474 30.6615 299.448 31.2656H307.786Z" fill="white"/>
<path d="M315.375 41.3958H320.359V32.901C320.344 31.6927 320.578 30.2969 321.047 28.7031C321.521 27.1146 322.276 25.9948 323.318 25.3333C324.38 24.8229 325.203 24.7917 325.781 25.2396C326.359 25.6823 326.677 26.276 326.745 27.0104C326.813 27.7448 326.599 28.3073 326.115 28.6875C327.719 29.0937 328.786 28.776 329.328 27.7292C329.865 26.6875 329.823 25.5729 329.198 24.3906C328.573 23.2083 327.323 22.6146 325.443 22.6146C323.208 22.7083 321.516 24.2396 320.359 27.2083V23.0312H315.375V41.3958Z" fill="white"/>
<path d="M333.583 41.4167H338.568V38.9323C338.568 37.0417 338.568 35.151 338.568 33.2604C338.568 31.3646 338.568 29.474 338.568 27.5833C338.568 26.5729 339.099 25.7292 340.167 25.0573C341.229 24.3906 342.276 24.2604 343.297 24.6771C344.323 25.0885 344.875 26.349 344.953 28.4479V31.8802C344.969 34.0052 344.969 36.1302 344.953 38.2448C344.953 39.3073 344.953 40.3646 344.953 41.4167H349.958C349.958 37.8281 349.958 34.2344 349.958 30.6354C349.948 29.901 349.995 29.0677 350.109 28.1354C350.219 27.2031 350.49 26.375 350.917 25.6615C351.344 24.9427 352.036 24.5521 352.995 24.4896C354.307 24.5 355.224 24.9687 355.745 25.8958C356.26 26.8229 356.521 27.849 356.521 28.9792C356.521 29.7292 356.521 30.8281 356.521 32.2708C356.521 33.7187 356.521 35.2083 356.521 36.7448C356.521 38.8229 356.521 40.3854 356.521 41.4375H361.51V30.5573C361.115 25.5677 358.724 23.0677 354.333 23.0677C352.115 23.0677 350.156 23.974 348.464 25.7865C347.005 24 345.156 23.0937 342.922 23.0677C342.135 23.0573 341.344 23.1771 340.552 23.4323C339.755 23.6875 339.083 24.0885 338.531 24.625L338.568 23.0677L333.583 23.0521V41.4167Z" fill="white"/>
<path d="M370.063 32.4479C370.115 34 370.458 35.4167 371.094 36.6979C371.734 37.9792 372.698 38.8854 373.984 39.4271C375.177 39.849 376.385 39.9896 377.599 39.849C378.813 39.7135 379.823 39.4531 380.625 39.0729C379.781 39.875 378.823 40.5052 377.74 40.9635C376.651 41.4219 375.49 41.651 374.24 41.651C372.547 41.651 371 41.2396 369.609 40.4115C368.214 39.5833 367.104 38.474 366.276 37.0833C365.448 35.6875 365.036 34.1458 365.036 32.4479C365.036 30.7552 365.448 29.2135 366.276 27.8177C367.104 26.4271 368.214 25.3177 369.609 24.4896C371 23.6615 372.547 23.2448 374.24 23.2448C375.932 23.2448 377.479 23.6615 378.87 24.4896C380.266 25.3177 381.375 26.4271 382.203 27.8177C383.031 29.2135 383.443 30.7552 383.443 32.4479H370.063ZM378.396 31.2656C378.359 30.6615 378.266 29.9792 378.12 29.2187C377.979 28.4583 377.75 27.7135 377.443 26.9896C377.135 26.2708 376.719 25.6667 376.198 25.1875C375.682 24.7083 375.021 24.4687 374.219 24.4687C373.495 24.4687 372.875 24.7031 372.359 25.1771C371.839 25.651 371.417 26.25 371.089 26.9687C370.755 27.6927 370.51 28.4375 370.349 29.2083C370.182 29.9792 370.089 30.6615 370.063 31.2656H378.396Z" fill="white"/>
<path d="M386.755 41.4167V23.0521L391.74 23.0677V24.7812C393.922 22.9844 396.479 22.6146 399.417 23.6719C402.354 24.7292 403.958 27.026 404.234 30.5573V41.4375H399.25V28.9792C399.25 26.526 398.62 25.0677 397.365 24.6042C396.109 24.1458 394.859 24.2656 393.609 24.9687C392.365 25.6719 391.74 26.5417 391.74 27.5833V41.4167H386.755Z" fill="white"/>
<path d="M420 24.2344H414.917V36.1927C414.901 36.9948 415.052 37.724 415.37 38.3802C415.682 39.0365 416.208 39.4896 416.948 39.7396C417.693 39.9792 418.714 39.8854 420 39.4635C418.818 40.5677 417.443 41.2396 415.88 41.474C414.333 41.7135 412.964 41.4323 411.781 40.6302C410.599 39.8385 409.984 38.4479 409.927 36.4531V24.2344C409.734 24.2344 409.563 24.2344 409.417 24.2344C409.271 24.2344 409.089 24.2344 408.865 24.2344C408.641 24.2344 408.313 24.2344 407.88 24.2344L414.917 18.7708V23.0521H420V24.2344Z" fill="white"/>
<path d="M177.688 119.318L175.469 113.552L171.328 102.901H142.979L138.786 113.552L136.568 119.318H132.823L135.094 113.552L160.234 48.7708H163.885L189.078 113.552L191.344 119.318H177.688ZM144.161 99.9427L170.146 99.8958L157.078 66.4219L144.161 99.9427Z" fill="white"/>
<path d="M229.057 76.4271H216.339V106.354C216.307 108.359 216.682 110.182 217.474 111.823C218.26 113.469 219.578 114.604 221.417 115.229C223.292 115.818 225.839 115.589 229.057 114.536C226.099 117.297 222.667 118.974 218.755 119.568C214.875 120.156 211.458 119.448 208.5 117.448C205.542 115.474 203.995 111.99 203.865 106.995V76.4271C203.375 76.4271 202.948 76.4271 202.583 76.4271C202.224 76.4271 201.76 76.4271 201.203 76.4271C200.646 76.4271 199.823 76.4271 198.74 76.4271L216.339 62.7708V73.4687H229.057V76.4271Z" fill="white"/>
<path d="M245.083 96.9844C245.214 100.865 246.073 104.406 247.672 107.609C249.266 110.812 251.672 113.089 254.891 114.437C257.885 115.49 260.901 115.844 263.938 115.5C266.979 115.151 269.5 114.505 271.505 113.552C269.401 115.557 266.995 117.135 264.281 118.281C261.573 119.432 258.656 120.01 255.531 120.01C251.292 120.01 247.432 118.974 243.948 116.901C240.464 114.833 237.688 112.057 235.615 108.573C233.547 105.089 232.51 101.224 232.51 96.9844C232.51 92.7448 233.547 88.8854 235.615 85.401C237.688 81.9167 240.464 79.1406 243.948 77.0677C247.432 75 251.292 73.9635 255.531 73.9635C259.771 73.9635 263.635 75 267.12 77.0677C270.604 79.1406 273.38 81.9167 275.448 85.401C277.521 88.8854 278.557 92.7448 278.557 96.9844H245.083ZM265.938 94.026C265.839 92.5156 265.604 90.8073 265.245 88.901C264.885 86.9948 264.318 85.1354 263.547 83.3281C262.771 81.5208 261.734 80.0156 260.438 78.8177C259.141 77.6198 257.49 77.0208 255.484 77.0208C253.677 77.0208 252.125 77.6094 250.823 78.7917C249.526 79.9792 248.469 81.474 247.646 83.2812C246.823 85.0885 246.208 86.9531 245.797 88.875C245.385 90.7969 245.146 92.5156 245.083 94.026H265.938Z" fill="white"/>
<path d="M285.854 119.417H298.328V48.9167H285.854V119.417Z" fill="white"/>
<path d="M310.208 119.417H322.682V73.4687H310.208V119.417ZM315.875 52.6146C317.781 52.6146 319.411 53.2865 320.76 54.6354C322.104 55.9844 322.781 57.6094 322.781 59.5156C322.781 61.4219 322.104 63.0417 320.76 64.375C319.411 65.7031 317.781 66.3698 315.875 66.3698C313.969 66.3698 312.344 65.7031 310.995 64.375C309.651 63.0417 308.974 61.4219 308.974 59.5156C308.974 57.6094 309.651 55.9844 310.995 54.6354C312.344 53.2865 313.969 52.6146 315.875 52.6146Z" fill="white"/>
<path d="M344.323 96.9844C344.453 100.865 345.318 104.406 346.911 107.609C348.505 110.812 350.911 113.089 354.135 114.437C357.125 115.49 360.141 115.844 363.182 115.5C366.224 115.151 368.745 114.505 370.75 113.552C368.646 115.557 366.24 117.135 363.526 118.281C360.813 119.432 357.896 120.01 354.776 120.01C350.536 120.01 346.672 118.974 343.188 116.901C339.708 114.833 336.927 112.057 334.859 108.573C332.786 105.089 331.75 101.224 331.75 96.9844C331.75 92.7448 332.786 88.8854 334.859 85.401C336.927 81.9167 339.708 79.1406 343.188 77.0677C346.672 75 350.536 73.9635 354.776 73.9635C359.016 73.9635 362.875 75 366.359 77.0677C369.844 79.1406 372.62 81.9167 374.693 85.401C376.766 88.8854 377.797 92.7448 377.797 96.9844H344.323ZM365.177 94.026C365.078 92.5156 364.849 90.8073 364.49 88.901C364.125 86.9948 363.557 85.1354 362.786 83.3281C362.016 81.5208 360.979 80.0156 359.682 78.8177C358.38 77.6198 356.729 77.0208 354.724 77.0208C352.917 77.0208 351.365 77.6094 350.068 78.7917C348.771 79.9792 347.708 81.474 346.885 83.2812C346.068 85.0885 345.448 86.9531 345.036 88.875C344.63 90.7969 344.391 92.5156 344.323 94.026H365.177Z" fill="white"/>
<path d="M384.156 119.37H396.63V98.1198C396.599 95.0937 397.172 91.5937 398.359 87.6198C399.542 83.6406 401.432 80.8333 404.026 79.1875C406.688 77.9062 408.745 77.8229 410.188 78.9427C411.635 80.0573 412.443 81.5365 412.604 83.3802C412.771 85.2187 412.245 86.6146 411.026 87.5677C415.036 88.5885 417.714 87.7917 419.063 85.1771C420.411 82.5677 420.302 79.7812 418.745 76.8229C417.182 73.8646 414.052 72.3854 409.349 72.3854C403.766 72.6146 399.526 76.4427 396.63 83.8698V73.4219H384.156V119.37Z" fill="white"/>
<path fill-rule="evenodd" clip-rule="evenodd" d="M107.438 57.6927C106.641 56 105.646 54.5104 104.578 53.4427L92.1667 41.0365C91.1667 40.0365 90.224 38.2708 89.6771 36.5521H91.3698C93.6875 36.5521 95.5677 34.6667 95.5677 32.3594V16.4792C95.5677 14.1615 93.6823 12.2865 91.3698 12.2865H73C71.9427 11.724 71.151 10.5677 71.151 9.38021V7.95833C71.151 3.56771 67.5781 0 63.1823 0H44.7865C40.401 0 36.8333 3.56771 36.8333 7.95833V9.38021C36.8333 10.5677 36.0469 11.724 34.9792 12.2865H17.3125C15 12.2865 13.125 14.1719 13.125 16.4792V32.3594C13.125 34.6719 15.0052 36.5521 17.3125 36.5521H19.4219C18.875 38.2708 17.9323 40.0365 16.9323 41.0365L4.52604 53.4427C3.28646 54.6823 2.15104 56.4844 1.30729 58.5156C0.463541 60.5469 0 62.6302 0 64.3802V133.188H5.30729V86.75C7.43229 83.7031 10.651 81.5625 14.2656 80.776C14.4115 80.776 14.5521 80.7656 14.7031 80.7344C20.0052 79.651 25.3229 82.1042 27.9323 86.849C28.2969 87.5104 28.974 87.875 29.6771 87.875C30 87.875 30.3281 87.8021 30.6354 87.625C31.5938 87.099 31.9479 85.8906 31.4219 84.9271C29.9063 82.1823 27.5781 79.901 24.8073 78.4115C27.0885 74.0677 31.6667 71.2344 36.6563 71.2344C41.6406 71.2344 46.2188 74.0573 48.5 78.4063C47.3906 79.0833 46.3854 79.9271 45.5104 80.9323C44.7917 81.7604 44.875 83.0156 45.6979 83.7448C46.0781 84.0729 46.5417 84.2292 47.0052 84.2292C47.5573 84.2292 48.1146 84 48.5104 83.5521C51.0365 80.651 55.1042 79.7448 58.625 81.2865C60.7813 82.3073 62.474 84.1875 63.2188 86.5833C63.4635 87.3698 64.1615 87.9219 64.9792 87.974C65.7969 88.0313 66.5625 87.5781 66.9115 86.8438C70.2656 79.7604 77.5 75.1823 85.3333 75.1823C93.2865 75.1823 100.479 79.8333 103.792 86.9323V133.188H107.438V57.6927ZM90.7917 133.188C90.3229 129.245 86.9688 126.188 82.901 126.188C78.8385 126.188 75.4792 129.245 75.0052 133.188H78.3698C78.8125 131.089 80.6771 129.505 82.901 129.505C85.125 129.505 86.9896 131.094 87.4271 133.188H90.7917ZM46.7604 133.188C50.6146 132.339 53.5156 128.901 53.5156 124.792C53.5156 120.047 49.6563 116.198 44.9219 116.198C40.1771 116.198 36.3281 120.047 36.3281 124.792C36.3281 128.896 39.2188 132.339 43.0781 133.188H46.7604ZM42.1354 9.36979V7.94792C42.1354 6.48437 43.3281 5.29687 44.7917 5.29687H63.1823C64.6563 5.29687 65.8385 6.48437 65.8385 7.94792V9.36979C65.8385 10.3594 66.0156 11.3438 66.375 12.2813H41.6094C41.9531 11.3438 42.1354 10.3698 42.1354 9.36979ZM18.4271 17.5833H90.2552V31.2344L89.1875 31.2448H18.4271V17.5833ZM5.30729 64.3802C5.30729 62.1823 6.72917 58.7552 8.28125 57.1979L20.6823 44.7969C21.9219 43.5573 23.0625 41.7552 23.9063 39.724C24.3437 38.6667 24.6823 37.5833 24.901 36.5521H84.1823C84.4063 37.5833 84.7344 38.6667 85.1719 39.724C86.0156 41.7552 87.1563 43.5573 88.3958 44.7969L100.797 57.1979C102.354 58.7552 103.776 62.1823 103.776 64.3802V79.6771C102.526 78.2292 101.099 76.9271 99.5208 75.7865C95.3594 72.7917 90.4427 71.2083 85.3021 71.2083C80.6094 71.2083 76.0469 72.5469 72.1146 75.0885C69.3698 76.8594 67.026 79.151 65.2083 81.8177C64.4479 80.75 63.5208 79.8021 62.4479 79C61.7865 78.5052 61.0938 78.0833 60.3646 77.7292C60.3177 77.6927 60.2552 77.6771 60.2083 77.6458C60.1771 77.6302 60.1406 77.6198 60.1094 77.6042C58.474 76.8594 56.6875 76.4635 54.8385 76.4635C53.9115 76.4635 53 76.5625 52.1094 76.7604C50.8281 74.2344 48.9531 72.0573 46.599 70.4063C43.6719 68.349 40.224 67.2552 36.6302 67.2552C33.0365 67.2552 29.5833 68.349 26.651 70.4167C24.276 72.0938 22.3854 74.2917 21.1146 76.849C19.875 76.5938 18.6094 76.4688 17.3385 76.4688C13.7083 76.4688 10.1979 77.5104 7.17187 79.4792C6.51042 79.9115 5.88021 80.3802 5.28125 80.8854L5.30729 64.3802ZM31.4531 94.8906C27.8229 94.8906 24.875 97.849 24.875 101.469C24.875 105.094 27.8229 108.047 31.4531 108.047C35.0781 108.047 38.0313 105.099 38.0313 101.469C38.0313 97.849 35.0781 94.8906 31.4531 94.8906ZM78.6875 102.328C78.6875 99.6823 76.5365 97.5365 73.8906 97.5365C71.25 97.5365 69.099 99.6823 69.099 102.328C69.099 104.974 71.25 107.12 73.8906 107.12C76.5365 107.12 78.6875 104.974 78.6875 102.328ZM31.4531 104.74C29.651 104.74 28.1875 103.276 28.1875 101.479C28.1875 99.6771 29.651 98.2135 31.4531 98.2135C33.25 98.2135 34.7135 99.6771 34.7135 101.479C34.7135 103.276 33.2552 104.74 31.4531 104.74ZM73.901 103.802C73.0938 103.802 72.4323 103.141 72.4323 102.328C72.4323 101.521 73.0938 100.859 73.901 100.859C74.7135 100.859 75.3698 101.521 75.3698 102.328C75.3698 103.141 74.7135 103.802 73.901 103.802ZM44.9219 130.063C42.0104 130.063 39.6458 127.698 39.6458 124.792C39.6458 121.88 42.0104 119.51 44.9219 119.51C47.8281 119.51 50.1927 121.88 50.1927 124.792C50.2031 127.698 47.8281 130.063 44.9219 130.063Z" fill="white"/>
</g>
<defs>
<clipPath id="clip0_1_25">
<rect width="420" height="133.333" fill="white"/>
</clipPath>
</defs>
</svg>
